<?xml version="1.0" standalone="no"?>
<!DOCTYPE svg PUBLIC "-//W3C//DTD SVG 20010904//EN"
 "http://www.w3.org/TR/2001/REC-SVG-20010904/DTD/svg10.dtd">
<svg version="1.0" xmlns="http://www.w3.org/2000/svg"
 width="275.000000pt" height="183.000000pt" viewBox="0 0 275.000000 183.000000"
 preserveAspectRatio="xMidYMid meet">

<g transform="translate(0.000000,183.000000) scale(0.100000,-0.100000)"
fill="#000000" stroke="none">
<path d="M1207 1504 c-122 -29 -253 -112 -325 -206 -150 -198 -173 -455 -60
-686 48 -97 169 -217 269 -266 42 -21 87 -36 100 -34 23 3 24 7 27 89 l3 86
-65 0 c-80 0 -124 23 -149 78 -11 22 -37 59 -59 81 -26 28 -36 44 -28 49 15 9
62 -3 55 -15 -3 -5 0 -7 8 -4 9 3 29 -13 53 -42 46 -56 87 -76 139 -67 32 5
39 12 56 50 24 56 24 53 -9 53 -53 0 -133 31 -172 66 -53 48 -73 112 -69 213
3 65 8 83 30 112 21 28 24 39 17 64 -14 52 8 145 35 145 7 0 45 -16 85 -35
l72 -34 81 11 c61 9 99 8 157 -1 77 -11 78 -11 132 18 30 16 69 32 87 36 29 6
32 4 43 -31 7 -22 10 -60 7 -92 -5 -49 -3 -59 18 -84 30 -35 39 -81 33 -163
-10 -124 -79 -197 -204 -217 -38 -7 -70 -13 -72 -14 -2 -1 5 -15 15 -30 15
-23 18 -51 20 -164 1 -74 2 -141 2 -147 1 -22 54 -14 115 17 175 89 288 237
331 434 48 214 -28 450 -189 592 -60 53 -186 117 -271 139 -74 19 -239 18
-318 -1z"/>
<path d="M1050 580 c0 -5 5 -10 11 -10 5 0 7 5 4 10 -3 6 -8 10 -11 10 -2 0
-4 -4 -4 -10z"/>
<path d="M1090 550 c0 -5 5 -10 10 -10 6 0 10 5 10 10 0 6 -4 10 -10 10 -5 0
-10 -4 -10 -10z"/>
<path d="M1195 550 c-3 -5 -1 -10 4 -10 6 0 11 5 11 10 0 6 -2 10 -4 10 -3 0
-8 -4 -11 -10z"/>
<path d="M1145 540 c4 -6 11 -8 16 -5 14 9 11 15 -7 15 -8 0 -12 -5 -9 -10z"/>
</g>
</svg>
