<?xml version="1.0" standalone="no"?>
<!DOCTYPE svg PUBLIC "-//W3C//DTD SVG 20010904//EN"
 "http://www.w3.org/TR/2001/REC-SVG-20010904/DTD/svg10.dtd">
<svg version="1.0" xmlns="http://www.w3.org/2000/svg"
 width="349.000000pt" height="130.000000pt" viewBox="0 0 349.000000 130.000000"
 preserveAspectRatio="xMidYMid meet">

<g transform="translate(0.000000,130.000000) scale(0.100000,-0.100000)"
fill="#000000" stroke="none">
<path d="M1935 1235 c-73 -26 -124 -110 -105 -174 21 -74 67 -107 201 -146 93
-27 123 -51 110 -88 -4 -12 -21 -28 -36 -36 -43 -21 -104 2 -127 49 l-18 35
-77 -4 c-43 -1 -79 -4 -80 -5 -7 -6 20 -78 40 -107 30 -45 74 -68 152 -80 97
-15 193 3 251 47 36 27 44 31 44 16 1 -28 39 -105 68 -136 31 -33 136 -86 170
-86 28 0 28 -2 -3 -50 -67 -107 -58 -286 19 -377 50 -58 119 -85 220 -86 123
-2 204 34 248 109 11 19 23 34 26 34 4 0 7 -30 7 -67 l0 -68 223 -3 222 -2 0
70 0 70 -135 0 -135 0 0 208 c0 115 -2 211 -4 213 -2 2 -43 3 -91 1 l-87 -4 2
-61 c3 -86 2 -87 -23 -42 -27 48 -102 101 -156 110 l-40 7 63 58 c71 67 122
153 131 221 5 43 5 43 -10 -11 -52 -183 -230 -320 -415 -320 -88 0 -149 22
-209 76 -63 56 -86 114 -86 209 1 78 31 158 82 219 37 45 127 115 183 144 25
13 34 20 20 16 -81 -22 -194 -116 -242 -201 -16 -29 -31 -53 -33 -53 -2 0 -18
15 -37 34 -24 24 -57 41 -116 60 -46 14 -89 26 -97 26 -23 0 -64 22 -70 38 -9
25 24 52 67 52 41 0 78 -27 78 -56 0 -14 10 -16 75 -12 42 3 78 8 82 11 3 4 1
25 -6 46 -13 46 -57 86 -109 101 -53 14 -190 12 -237 -5z m905 -804 c35 -25
52 -92 44 -171 -5 -55 -11 -69 -39 -97 -37 -37 -76 -43 -129 -18 -45 22 -59
51 -63 135 -5 90 14 136 67 163 40 20 81 15 120 -12z"/>
<path d="M40 960 l0 -280 85 0 85 0 0 115 c0 113 0 115 23 115 37 0 53 -19
110 -125 l53 -100 97 -3 c53 -1 97 0 97 4 0 3 -19 43 -42 87 -46 88 -92 147
-114 147 -8 0 -14 5 -14 10 0 6 9 10 20 10 32 0 97 70 105 113 10 49 -1 99
-27 132 -38 49 -70 55 -283 55 l-195 0 0 -280z m311 160 c13 -7 19 -21 19 -45
0 -43 -21 -56 -98 -58 l-57 -2 -3 58 -3 57 61 0 c34 0 70 -5 81 -10z"/>
<path d="M2683 1213 c20 -2 54 -2 75 0 20 2 3 4 -38 4 -41 0 -58 -2 -37 -4z"/>
<path d="M2618 1203 c7 -3 16 -2 19 1 4 3 -2 6 -13 5 -11 0 -14 -3 -6 -6z"/>
<path d="M2835 1194 c88 -31 156 -113 180 -214 13 -59 14 -61 9 -15 -8 70 -40
140 -82 176 -38 34 -107 69 -132 68 -8 0 3 -7 25 -15z"/>
<path d="M2669 1047 c-47 -32 -66 -68 -53 -104 14 -41 53 -51 115 -30 54 19
69 16 69 -13 0 -22 -37 -36 -67 -26 -13 4 -27 -2 -41 -17 l-22 -24 25 -11 c48
-22 85 -12 138 36 34 32 38 91 7 122 -24 24 -44 25 -100 5 -53 -19 -70 -19
-70 0 0 20 31 35 51 25 23 -13 71 36 49 50 -25 16 -66 11 -101 -13z"/>
<path d="M2510 933 c-14 -9 -27 -17 -28 -19 -2 -1 19 -35 47 -75 28 -40 51
-78 51 -85 0 -17 -21 -23 -43 -12 -14 7 -24 5 -38 -8 -24 -21 -24 -33 -1 -50
25 -19 62 -17 99 6 40 24 57 55 49 92 -5 27 -94 168 -106 168 -3 0 -17 -8 -30
-17z"/>
<path d="M195 579 c-62 -8 -105 -29 -138 -68 -47 -56 -44 -136 6 -189 30 -33
63 -48 154 -73 100 -27 123 -41 123 -79 0 -62 -89 -82 -141 -31 -16 16 -29 39
-29 50 0 21 -3 21 -82 15 -46 -4 -85 -8 -86 -10 -8 -6 22 -81 46 -113 40 -54
100 -75 212 -75 107 0 156 18 204 74 l26 32 29 -31 c82 -88 274 -104 376 -33
37 26 75 80 89 128 6 20 -7 27 -126 60 -11 3 -19 -5 -27 -29 -15 -45 -40 -66
-85 -74 -86 -14 -126 38 -126 162 0 97 21 139 81 156 33 10 45 10 75 -4 19 -9
40 -28 46 -42 6 -14 16 -25 22 -25 19 1 128 28 133 34 11 11 -19 64 -55 99
-51 50 -100 68 -186 68 -115 1 -180 -25 -234 -91 l-19 -23 -22 36 c-39 63
-140 92 -266 76z m96 -110 c11 -5 24 -22 30 -36 9 -25 12 -26 74 -21 l65 6 -6
-42 c-4 -22 -8 -43 -10 -45 -2 -2 -25 6 -51 17 -26 11 -79 28 -117 36 -73 17
-96 30 -96 52 0 37 67 57 111 33z"/>
<path d="M1950 579 c-30 -3 -73 -15 -96 -27 -40 -20 -104 -83 -104 -102 0 -6
-4 -10 -10 -10 -6 0 -10 29 -10 68 l0 67 -82 -2 -83 -1 0 -96 0 -96 -97 0 -98
0 0 95 0 95 -85 0 -85 0 0 -280 0 -280 85 0 85 0 0 115 0 115 95 0 95 0 0
-115 0 -115 85 0 85 0 0 64 c0 65 13 94 25 57 10 -32 94 -100 139 -112 23 -6
77 -12 122 -12 178 -2 275 97 276 284 1 105 -21 167 -78 219 -24 22 -56 45
-72 51 -41 17 -130 25 -192 18z m121 -142 c35 -22 51 -66 51 -143 -1 -83 -20
-130 -63 -151 -60 -31 -138 -1 -159 62 -7 21 -10 69 -8 110 3 65 7 78 32 104
16 16 38 32 50 34 27 6 75 -2 97 -16z"/>
</g>
</svg>
